<svg width="24" height="20" viewBox="0 0 24 20" fill="none" xmlns="http://www.w3.org/2000/svg">
<path d="M1.03312e-06 10C1.02092e-06 9.86042 0.0549689 9.72655 0.152812 9.62785C0.250655 9.52915 0.383361 9.4737 0.521731 9.4737L22.2179 9.4737L13.7176 0.89895C13.6197 0.800195 13.5647 0.666253 13.5647 0.526591C13.5647 0.386929 13.6197 0.25299 13.7176 0.154235C13.8155 0.0554799 13.9483 -1.0286e-06 14.0867 -1.0407e-06C14.2252 -1.05281e-06 14.3579 0.0554799 14.4558 0.154235L23.847 9.62764C23.8955 9.67652 23.934 9.73456 23.9602 9.79846C23.9865 9.86235 24 9.93083 24 10C24 10.0692 23.9865 10.1376 23.9602 10.2015C23.934 10.2654 23.8955 10.3235 23.847 10.3724L14.4558 19.8458C14.4074 19.8947 14.3498 19.9335 14.2865 19.9599C14.2232 19.9864 14.1553 20 14.0867 20C14.0182 20 13.9503 19.9864 13.8869 19.9599C13.8236 19.9335 13.7661 19.8947 13.7176 19.8458C13.6691 19.7969 13.6307 19.7388 13.6044 19.6749C13.5782 19.611 13.5647 19.5426 13.5647 19.4734C13.5647 19.4043 13.5782 19.3358 13.6044 19.2719C13.6307 19.208 13.6691 19.1499 13.7176 19.1011L22.2179 10.5263L0.521732 10.5263C0.383361 10.5263 0.250655 10.4709 0.152812 10.3722C0.0549689 10.2735 1.04532e-06 10.1396 1.03312e-06 10Z" fill="black"/>
</svg>
